<svg width="62" height="23" viewBox="0 0 62 23" fill="none" xmlns="http://www.w3.org/2000/svg">
<path d="M4.36266 19.6494C1.95323 19.6494 -8.53784e-08 17.6962 -1.90698e-07 15.2868L18.6373 15.2868C21.0467 15.2868 23 17.24 23 19.6494L4.36266 19.6494Z" fill="white"/>
<path d="M18.6373 4.36279C21.0468 4.36279 23 2.40956 23 0.000127792L4.36269 0.000128607C1.95325 0.000128712 3.04123e-05 1.95336 3.05176e-05 4.36279L18.6373 4.36279Z" fill="white"/>
<path d="M23 12.2502L23 7.46876L14.5015 7.46876C13.1812 7.46876 12.1108 8.53914 12.1108 9.8595C12.1108 11.1799 13.1812 12.2502 14.5015 12.2502L23 12.2502Z" fill="white"/>
<path d="M4.39746 5.2002C1.96875 5.2002 -0.000105209 7.16905 -0.000104997 9.59776L-0.000104572 14.449C2.4286 14.449 4.39746 12.4802 4.39746 10.0515L4.39746 5.2002Z" fill="white"/>
<circle cx="14.5014" cy="9.85955" r="1.27386" fill="#008FD9"/>
<path d="M27.828 20V11.6H30.528L32.496 17.396H32.568L34.536 11.6H37.188V20H35.34V14.132H35.28L33.264 20H31.752L29.736 14.132H29.676V20H27.828ZM42.2756 20.12C41.5716 20.12 40.9556 19.972 40.4276 19.676C39.8996 19.38 39.4916 18.952 39.2036 18.392C38.9236 17.832 38.7836 17.164 38.7836 16.388V11.6H40.6316V16.388C40.6316 16.836 40.6996 17.216 40.8356 17.528C40.9796 17.832 41.1756 18.064 41.4236 18.224C41.6716 18.376 41.9556 18.452 42.2756 18.452C42.6036 18.452 42.8876 18.376 43.1276 18.224C43.3756 18.064 43.5716 17.832 43.7156 17.528C43.8596 17.216 43.9316 16.836 43.9316 16.388V11.6H45.7796V16.388C45.7796 17.164 45.6356 17.832 45.3476 18.392C45.0596 18.952 44.6516 19.38 44.1236 19.676C43.6036 19.972 42.9876 20.12 42.2756 20.12ZM47.3749 20V11.6H50.8789C51.4549 11.6 51.9669 11.724 52.4149 11.972C52.8629 12.212 53.2109 12.556 53.4589 13.004C53.7069 13.444 53.8309 13.94 53.8309 14.492C53.8309 15.052 53.7069 15.552 53.4589 15.992C53.2109 16.432 52.8629 16.776 52.4149 17.024C51.9669 17.264 51.4549 17.384 50.8789 17.384H49.2229V20H47.3749ZM50.6869 15.728C50.9669 15.728 51.1989 15.68 51.3829 15.584C51.5749 15.488 51.7229 15.348 51.8269 15.164C51.9309 14.972 51.9829 14.748 51.9829 14.492C51.9829 14.108 51.8669 13.808 51.6349 13.592C51.4109 13.368 51.0949 13.256 50.6869 13.256H49.2229V15.728H50.6869ZM57.8489 20.12C57.2249 20.12 56.6609 20.02 56.1569 19.82C55.6609 19.62 55.2569 19.32 54.9449 18.92C54.6409 18.52 54.4649 18.032 54.4169 17.456H56.2649C56.3209 17.792 56.4889 18.056 56.7689 18.248C57.0489 18.432 57.4089 18.524 57.8489 18.524C58.2169 18.524 58.5129 18.484 58.7369 18.404C58.9609 18.316 59.1249 18.2 59.2289 18.056C59.3329 17.904 59.3849 17.728 59.3849 17.528C59.3849 17.32 59.3089 17.152 59.1569 17.024C59.0129 16.896 58.8289 16.8 58.6049 16.736C58.3889 16.672 58.0769 16.6 57.6689 16.52C57.0609 16.4 56.5569 16.268 56.1569 16.124C55.7649 15.98 55.4249 15.736 55.1369 15.392C54.8569 15.048 54.7169 14.568 54.7169 13.952C54.7169 13.424 54.8529 12.976 55.1249 12.608C55.4049 12.232 55.7809 11.952 56.2529 11.768C56.7249 11.576 57.2569 11.48 57.8489 11.48C58.5129 11.48 59.0769 11.588 59.5409 11.804C60.0129 12.012 60.3769 12.304 60.6329 12.68C60.8889 13.048 61.0489 13.476 61.1129 13.964H59.2649C59.2089 13.684 59.0649 13.468 58.8329 13.316C58.6009 13.156 58.2929 13.076 57.9089 13.076C57.6289 13.076 57.3889 13.116 57.1889 13.196C56.9969 13.276 56.8529 13.384 56.7569 13.52C56.6689 13.648 56.6249 13.792 56.6249 13.952C56.6249 14.176 56.7009 14.356 56.8529 14.492C57.0049 14.628 57.1969 14.736 57.4289 14.816C57.6609 14.888 57.9889 14.968 58.4129 15.056C59.0049 15.184 59.4929 15.324 59.8769 15.476C60.2689 15.62 60.6009 15.856 60.8729 16.184C61.1529 16.504 61.2929 16.952 61.2929 17.528C61.2929 18.016 61.1569 18.46 60.8849 18.86C60.6209 19.252 60.2289 19.56 59.7089 19.784C59.1969 20.008 58.5769 20.12 57.8489 20.12Z" fill="white"/>
</svg>
