<svg width="44" height="44" viewBox="0 0 44 44" fill="none" xmlns="http://www.w3.org/2000/svg">
<rect width="44" height="44" rx="12" fill="#D4F0FF"/>
<path fill-rule="evenodd" clip-rule="evenodd" d="M21.7776 30.8861C21.7776 31.5557 22.2385 32.138 22.8901 32.2918C23.5424 32.4464 24.215 32.1315 24.5148 31.5319C26.1315 28.2985 28.7408 23.0799 29.8475 20.8665C30.0714 20.4186 30.0476 19.8869 29.7839 19.4614C29.5209 19.0352 29.0557 18.7759 28.5551 18.7759C27.2981 18.7759 25.2993 18.7759 23.9448 18.7759C23.546 18.7759 23.2224 18.4522 23.2224 18.0535V12.4448C23.2224 11.7752 22.7615 11.1929 22.1099 11.039C21.4576 10.8844 20.785 11.1994 20.4852 11.799C18.8685 15.0324 16.2592 20.251 15.1525 22.4644C14.9286 22.9123 14.9524 23.444 15.2161 23.8695C15.4791 24.2957 15.9443 24.555 16.4449 24.555C17.7019 24.555 19.7007 24.555 21.0552 24.555C21.454 24.555 21.7776 24.8786 21.7776 25.2774V30.8861ZM21.7776 12.4448V18.0535C21.7776 19.2505 22.7478 20.2207 23.9448 20.2207H28.5551L23.2224 30.8861V25.2774C23.2224 24.0804 22.2522 23.1102 21.0552 23.1102H16.4449L21.7776 12.4448Z" fill="#008FD9"/>
</svg>
