<svg width="44" height="44" viewBox="0 0 44 44" fill="none" xmlns="http://www.w3.org/2000/svg">
<rect width="44" height="44" rx="12" fill="white"/>
<path d="M32.0558 20.4193C32.0558 18.8607 31.8079 17.3155 31.3191 15.8278C30.8025 14.2522 29.3832 13.0355 27.6164 12.653C23.6335 11.7822 19.4202 11.7827 15.4415 12.6525C13.6726 13.0354 12.2532 14.2522 11.7325 15.8401C11.6086 16.2349 11.4961 16.6308 11.4087 17.0132C11.1373 18.1328 11 19.2786 11 20.4193C11 21.56 11.1373 22.7059 11.4056 23.8126C11.4062 23.8152 11.4072 23.8179 11.4079 23.8206L11.4088 23.8254L11.4101 23.8285C11.4999 24.2185 11.6104 24.6091 11.7367 25.0109C12.2533 26.5865 13.6727 27.8032 15.439 28.1856C17.4171 28.6184 19.429 28.8365 21.4396 28.8365C21.6803 28.8365 21.921 28.8237 22.1617 28.8174C23.13 30.7462 25.1095 32 27.3182 32C30.511 32 33.1086 29.4025 33.1086 26.2097C33.1086 24.8959 32.6526 23.664 31.8649 22.6706C31.982 21.9137 32.0558 21.1579 32.0558 20.4193ZM13.3095 22.5249C13.2844 22.3805 13.2514 22.2372 13.2314 22.0921C13.2146 21.9706 13.1973 21.8492 13.1841 21.7274C13.1374 21.292 13.1056 20.8553 13.1056 20.4193C13.1056 19.9826 13.1374 19.5449 13.1846 19.1075C13.1975 18.9882 13.2146 18.8693 13.231 18.7503C13.251 18.6045 13.2845 18.4594 13.3098 18.3138H15.2112C16.3724 18.3138 17.3167 19.2581 17.3167 20.4193C17.3167 20.9802 17.0972 21.5087 16.6988 21.907C16.3005 22.3054 15.772 22.5249 15.2112 22.5249H13.3095ZM15.8866 26.128C14.9589 25.9273 14.2272 25.3561 13.8753 24.6305H15.2112C16.3344 24.6305 17.3913 24.192 18.1875 23.3957C18.9837 22.5993 19.4223 21.5426 19.4223 20.4193C19.4223 18.0973 17.5332 16.2082 15.2112 16.2082H13.8767C14.2335 15.4784 14.9631 14.9104 15.8886 14.7102C17.7331 14.3072 19.6305 14.1026 21.5279 14.1026C23.4252 14.1026 25.3227 14.3072 27.1691 14.7107C28.2101 14.9359 29.0336 15.6155 29.3184 16.4842C29.7378 17.7601 29.9502 19.0843 29.9502 20.4193C29.9502 20.626 29.9445 20.8341 29.9338 21.044C29.8906 21.0221 29.8444 21.0068 29.8008 20.9859C29.685 20.9308 29.5676 20.8796 29.4481 20.8323C29.3687 20.801 29.2895 20.7703 29.2086 20.7424C29.0847 20.6996 28.9589 20.6627 28.8319 20.6283C28.7528 20.6068 28.6746 20.584 28.5946 20.5659C28.4547 20.5342 28.313 20.5112 28.1704 20.49C28.101 20.4797 28.0325 20.4653 27.9625 20.4574C27.7494 20.4335 27.5347 20.4193 27.3182 20.4193C24.1254 20.4193 21.5279 23.0169 21.5279 26.2097C21.5279 26.3855 21.5356 26.5592 21.5505 26.7304C19.6609 26.751 17.7552 26.5371 15.8866 26.128ZM27.3182 29.8944C25.7426 29.8944 24.3449 28.8956 23.8314 27.3817C23.7003 27.0265 23.6335 26.6317 23.6335 26.2097C23.6335 24.1781 25.2867 22.5249 27.3182 22.5249C28.3382 22.5249 29.3107 22.9459 30.0026 23.697C30.6478 24.3673 31.003 25.2597 31.003 26.2097C31.003 28.2412 29.3498 29.8944 27.3182 29.8944Z" fill="#008FD9"/>
<path d="M28.9525 25.1131H28.3382V24.5867C28.3382 24.0054 27.8668 23.5339 27.2854 23.5339C26.7041 23.5339 26.2326 24.0054 26.2326 24.5867V25.1131H25.6841C25.1028 25.1131 24.6313 25.5846 24.6313 26.1659C24.6313 26.7473 25.1028 27.2187 25.6841 27.2187H26.2326V27.8325C26.2326 28.4138 26.7041 28.8853 27.2854 28.8853C27.8668 28.8853 28.3382 28.4138 28.3382 27.8325V27.2187H28.9525C29.5339 27.2187 30.0053 26.7473 30.0053 26.1659C30.0053 25.5846 29.534 25.1131 28.9525 25.1131Z" fill="#008FD9"/>
</svg>
